<svg id="Group_2464" data-name="Group 2464" xmlns="http://www.w3.org/2000/svg" width="160" height="45.031" viewBox="0 0 160 45.031">
	<path id="Path_1014" data-name="Path 1014" d="M891.216,1495.441H885.2v-23.8h6.016v3.688a8.238,8.238,0,0,1,7.3-4.031v6.312h-1.594c-3.562,0-5.719,1.375-5.719,5.969v11.859Z" transform="translate(-778.216 -1461.753)" fill="#252a4a">
	</path>
	<path id="Path_1015" data-name="Path 1015" d="M987.7,1421.678v-2.187c0-5.453,3.047-7.391,7.609-7.391h3.781v5.063h-2.8c-1.891,0-2.531.688-2.531,2.281v2.234h5.328v4.938h-5.328v18.859H987.7v-23.8Z" transform="translate(-864.7 -1411.803)" fill="#f52c56">
	</path>
	<path id="Path_1016" data-name="Path 1016" d="M210.891,1495.479c-5.969,0-10.141-3.485-10.391-7.906h6.063c.219,1.8,1.891,3.172,4.3,3.172,2.359,0,3.656-1.078,3.656-2.453,0-4.25-13.453-1.547-13.453-10.266,0-3.953,3.516-7.125,9.406-7.125,5.75,0,9.234,3.141,9.578,7.859H214.3c-.172-1.844-1.625-3.094-4-3.094-2.234,0-3.391.906-3.391,2.281,0,4.344,13.188,1.625,13.359,10.359C220.266,1492.4,216.7,1495.479,210.891,1495.479Z" transform="translate(-200.5 -1461.416)" fill="#252a4a">
	</path>
	<path id="Path_1017" data-name="Path 1017" d="M363.675,1471c6.094,0,10.875,4.766,10.875,12.2s-4.766,12.375-10.875,12.375a9.693,9.693,0,0,1-7.859-3.781v14.735H349.8v-35.141h6.016v3.438A9.446,9.446,0,0,1,363.675,1471Zm-1.594,5.281c-3.219,0-6.266,2.5-6.266,7,0,4.516,3.047,7,6.266,7,3.266,0,6.313-2.578,6.313-7.094C368.394,1478.688,365.347,1476.281,362.081,1476.281Z" transform="translate(-326.472 -1461.5)" fill="#252a4a">
	</path>
	<path id="Path_1018" data-name="Path 1018" d="M530.975,1471a9.427,9.427,0,0,1,7.859,3.781v-3.391H544.9v23.8h-6.062V1491.7a9.389,9.389,0,0,1-7.906,3.859c-6.016,0-10.828-4.938-10.828-12.375C520.1,1475.766,524.913,1471,530.975,1471Zm1.547,5.281c-3.219,0-6.266,2.406-6.266,6.922s3.047,7.094,6.266,7.094c3.312,0,6.313-2.484,6.313-7C538.834,1478.766,535.834,1476.281,532.522,1476.281Z" transform="translate(-470.163 -1461.5)" fill="#252a4a">
	</path>
	<path id="Path_1019" data-name="Path 1019" d="M710.275,1471a9.426,9.426,0,0,1,7.859,3.781v-3.391H724.2v23.8h-6.063V1491.7a9.389,9.389,0,0,1-7.906,3.859c-6.016,0-10.828-4.938-10.828-12.375C699.4,1475.766,704.213,1471,710.275,1471Zm1.547,5.281c-3.219,0-6.266,2.406-6.266,6.922s3.047,7.094,6.266,7.094c3.313,0,6.313-2.484,6.313-7C718.134,1478.766,715.134,1476.281,711.822,1476.281Z" transform="translate(-621.447 -1461.5)" fill="#252a4a">
	</path>
	<path id="Path_1020" data-name="Path 1020" d="M1074.8,1413.716a3.692,3.692,0,1,1,3.688,3.516A3.524,3.524,0,0,1,1074.8,1413.716Zm.656,6.359h6.016v23.8h-6.016Z" transform="translate(-938.191 -1410.2)" fill="#f52c56">
	</path>
	<path id="Path_1021" data-name="Path 1021" d="M1136.328,1446.628H1133.5v-4.938h2.828V1435.8h6.063v5.891h5.328v4.938h-5.328v11.516c0,1.594.64,2.281,2.531,2.281h2.8v5.063h-3.781c-4.547,0-7.609-1.937-7.609-7.391Z" transform="translate(-987.719 -1431.8)" fill="#f52c56">
	</path>
</svg>
